<svg id="Capa_1" enable-background="new 0 0 510.049 510.049" height="512" viewBox="0 0 510.049 510.049" width="512" xmlns="http://www.w3.org/2000/svg"><g><path d="m507.355 288.261c-3.8-6.878-10.76-10.985-18.617-10.985h-18.199l-2.272-11.353c-2.151-10.757-8.722-20.262-18.024-26.078l-8.617-5.388c-.202-.126-.348-.333-.399-.566l-1.155-5.231c-.226-1.018-.505-2.055-.881-3.264-1.23-3.955-5.432-6.165-9.389-4.935-3.956 1.23-6.165 5.433-4.936 9.389.249.799.427 1.45.559 2.047l1.155 5.23c.915 4.14 3.5 7.802 7.094 10.049l8.618 5.388c5.815 3.636 9.922 9.577 11.267 16.302l1.683 8.409h-334.59c-4.143 0-7.5 3.358-7.5 7.5s3.357 7.5 7.5 7.5h368.086c3.338 0 4.949 2.264 5.486 3.238.538.973 1.597 3.542-.181 6.369l-12.507 19.886c-1.339 2.13-2.263 4.463-2.745 6.933l-3.972 20.325c-.794 4.065 1.858 8.004 5.923 8.799.486.095.97.141 1.446.141 3.516 0 6.653-2.484 7.354-6.063l3.97-20.324c.128-.651.371-1.266.723-1.826l12.506-19.884c4.183-6.652 4.413-14.73.614-21.608z"/><path d="m477.372 375.066c-4.066-.797-8.006 1.858-8.799 5.923l-1.788 9.159c-9.333 47.763-51.429 82.429-100.095 82.429h-223.331c-48.666 0-90.762-34.667-100.095-82.429l-12.006-61.447c-.482-2.47-1.406-4.802-2.746-6.934l-12.506-19.885c-1.777-2.826-.719-5.395-.181-6.368.537-.974 2.148-3.238 5.486-3.238h67.377c4.143 0 7.5-3.358 7.5-7.5s-3.357-7.5-7.5-7.5h-32.879l1.683-8.41c1.345-6.724 5.451-12.666 11.267-16.301l7.456-4.661c4.333-2.709 7.45-7.124 8.552-12.114l.859-3.892c1.671-7.563 6.861-14.026 13.886-17.29l13.108-6.09c1.683-.782 3.017-2.16 3.742-3.868 3.354-7.89 10.403-13.452 18.858-14.878l6.718-1.133c4.309-.728 8.169-3.23 10.591-6.864l4.374-6.561c3.684-5.526 9.537-9.419 16.058-10.682l10.151-1.965c4.216-.816 7.863-3.223 10.271-6.78l1.388-2.052c4.66-6.882 12.403-10.991 20.713-10.991h6.498c4.175 0 8.1-1.625 11.051-4.577l1.887-1.886c4.724-4.725 11.005-7.326 17.686-7.326h5.838c6.681 0 12.962 2.602 17.687 7.327l1.911 1.911c2.937 2.935 6.839 4.551 10.989 4.551h6.534c8.31 0 16.053 4.108 20.711 10.989l1.362 2.013c2.428 3.583 6.104 6.009 10.351 6.831l10.1 1.955c6.521 1.262 12.374 5.156 16.058 10.683l3.685 5.526c2.861 4.292 7.419 7.246 12.505 8.104l5.493.927c8.455 1.426 15.505 6.988 18.858 14.878.726 1.708 2.06 3.086 3.742 3.868l7.608 3.535c3.758 1.746 8.216.115 9.962-3.642 1.745-3.757.114-8.217-3.642-9.962l-5.145-2.39c-5.758-11.171-16.359-18.964-28.889-21.078l-5.494-.927c-1.024-.173-1.942-.768-2.519-1.633l-.637-.955c15.154-3.09 26.593-16.512 26.593-32.565 0-18.331-14.913-33.244-33.244-33.244s-33.244 14.913-33.244 33.244c0 3.116.447 6.127 1.254 8.988l-.196-.038c-.32-.062-.598-.245-.778-.513l-1.362-2.012c-7.453-11.008-19.84-17.581-33.133-17.581h-6.534c-.145 0-.281-.057-.384-.16l-1.91-1.91c-7.558-7.558-17.605-11.72-28.293-11.72h-5.838c-10.688 0-20.735 4.162-28.292 11.719l-1.887 1.886c-.118.119-.276.184-.444.184h-4.835c-4.25-4.545-9.071-8.372-14.225-11.265l-1.357-15.321c-.333-3.756-2.107-7.157-4.999-9.578-.822-.688-1.713-1.262-2.645-1.74l-1.659-18.727c8.744-4.897 14.062-14.554 13.141-24.95-1.265-14.271-13.907-24.863-28.177-23.59-3.735.331-7.295 1.442-10.497 3.26-3.474-1.226-7.167-1.695-10.907-1.363-6.913.612-13.175 3.881-17.631 9.203-4.455 5.322-6.572 12.061-5.959 18.974.915 10.328 7.797 18.883 17.2 22.205l1.664 18.784c-.833.634-1.609 1.355-2.297 2.177-2.42 2.891-3.57 6.551-3.237 10.307l1.098 12.39c-10.134-3.452-20.709-4.478-30.657-2.726l-10.751-10.997c-2.636-2.696-6.163-4.205-9.934-4.247-1.066-.007-2.116.116-3.14.337l-13.153-13.452c3.668-9.328 1.668-20.168-5.628-27.632-10.017-10.245-26.5-10.431-36.745-.416-2.683 2.622-4.732 5.735-6.061 9.17-3.464 1.25-6.623 3.229-9.306 5.852-10.245 10.016-10.432 26.5-.416 36.746 7.247 7.414 17.991 9.678 27.372 6.294l13.182 13.484c-.243 1.019-.387 2.068-.399 3.141-.042 3.77 1.386 7.332 4.021 10.027l10.749 10.996c-3.26 16.246.865 34.307 11.144 49.564-8.022 5.706-13.812 14.288-15.96 24.013l-.859 3.892c-.239 1.082-.916 2.04-1.856 2.628l-7.456 4.662c-9.303 5.816-15.873 15.321-18.024 26.077l-2.272 11.354h-19.199c-7.857 0-14.817 4.106-18.617 10.985-3.799 6.878-3.569 14.956.614 21.607l12.505 19.883c.353.562.596 1.176.724 1.827l12.006 61.447c10.704 54.788 58.991 94.553 114.815 94.553h223.332c55.824 0 104.111-39.765 114.816-94.554l1.789-9.16c.794-4.065-1.858-8.005-5.924-8.799zm-114.348-254.409c10.06 0 18.244 8.184 18.244 18.244s-8.185 18.245-18.244 18.245-18.244-8.185-18.244-18.245 8.184-18.244 18.244-18.244zm-215.851-69.333c-.259-2.922.636-5.771 2.52-8.021 1.883-2.25 4.53-3.631 7.453-3.89.329-.029.656-.043.983-.043 1.951 0 3.853.518 5.55 1.519 2.766 1.632 6.263 1.321 8.697-.77 1.745-1.499 3.879-2.398 6.173-2.602 6.033-.531 11.378 3.94 11.912 9.972.472 5.33-2.93 10.198-8.089 11.575-3.522.94-5.857 4.277-5.536 7.908l1.952 22.035-3.867.343-9.076.804-1.953-22.055c-.32-3.613-3.18-6.479-6.791-6.808-5.284-.481-9.459-4.672-9.928-9.967zm15.053 72.932-1.646-18.577 26.121-2.314 1.646 18.576c.238 2.693 1.908 5.049 4.369 6.167 2.028.921 4.007 2.055 5.919 3.361-6.348 2.947-11.895 7.553-16.007 13.475-2.05-2.746-4.266-5.375-6.671-7.835-4.213-4.31-8.862-8.042-13.787-11.156.077-.557.107-1.124.056-1.697zm-112.436-23.458c-1.456 0-2.922.423-4.201 1.289-4.394 2.973-10.279 2.373-13.993-1.427-4.234-4.332-4.155-11.3.175-15.534 1.647-1.61 3.72-2.646 5.992-2.996 3.173-.489 5.683-2.942 6.243-6.103.401-2.265 1.484-4.313 3.131-5.922 4.332-4.234 11.299-4.156 15.533.176 3.74 3.826 4.19 9.748 1.069 14.081-2.13 2.958-1.825 7.019.723 9.626l15.464 15.817-.356.349-8.935 8.735-15.478-15.833c-1.457-1.49-3.404-2.258-5.367-2.258zm45.353 15.108 13.036 13.335c1.89 1.934 4.674 2.701 7.287 2.006 16.294-4.322 35.83 2.093 49.764 16.346.871.891 1.702 1.816 2.516 2.756-9.473 2.45-17.879 8.379-23.322 16.545l-4.375 6.561c-.139.208-.359.352-.606.393l-6.717 1.133c-12.529 2.114-23.131 9.907-28.889 21.079l-3.474 1.614c-9.514-13.269-13.02-29.22-9.093-42.77.752-2.596.049-5.397-1.841-7.33l-13.037-13.336z"/><path d="m149.992 234.885c0 14.222 14.162 25.362 32.242 25.362s32.242-11.14 32.242-25.362-14.162-25.362-32.242-25.362-32.242 11.141-32.242 25.362zm49.485 0c0 4.901-7.081 10.362-17.242 10.362s-17.242-5.461-17.242-10.362 7.081-10.362 17.242-10.362 17.242 5.462 17.242 10.362z"/><path d="m228.41 167.369h-5.358c-4.143 0-7.5 3.358-7.5 7.5s3.357 7.5 7.5 7.5h5.358c4.143 0 7.5-3.358 7.5-7.5s-3.357-7.5-7.5-7.5z"/><path d="m243.414 220.598c-4.143 0-7.5 3.358-7.5 7.5s3.357 7.5 7.5 7.5h5.716c4.143 0 7.5-3.358 7.5-7.5s-3.357-7.5-7.5-7.5z"/><path d="m325.222 185.946c-19.895 0-36.079 13.941-36.079 31.078s16.185 31.078 36.079 31.078 36.079-13.941 36.079-31.078-16.184-31.078-36.079-31.078zm0 47.155c-11.623 0-21.079-7.212-21.079-16.078s9.456-16.078 21.079-16.078 21.079 7.212 21.079 16.078-9.456 16.078-21.079 16.078z"/></g></svg>